<?xml version="1.0" encoding="UTF-8"?>
<svg width="525px" height="606px" viewBox="0 0 525 606" version="1.1" xmlns="http://www.w3.org/2000/svg" xmlns:xlink="http://www.w3.org/1999/xlink">
    <title>Group 15</title>
    <defs>
        <rect id="path-1" x="0" y="0" width="224" height="309" rx="13"></rect>
        <filter x="-27.9%" y="-12.1%" width="155.8%" height="148.5%" filterUnits="objectBoundingBox" id="filter-3">
            <feMorphology radius="12.5" operator="erode" in="SourceAlpha" result="shadowSpreadOuter1"></feMorphology>
            <feOffset dx="0" dy="50" in="shadowSpreadOuter1" result="shadowOffsetOuter1"></feOffset>
            <feGaussianBlur stdDeviation="25" in="shadowOffsetOuter1" result="shadowBlurOuter1"></feGaussianBlur>
            <feColorMatrix values="0 0 0 0 0.293478072   0 0 0 0 0.359720343   0 0 0 0 0.604534647  0 0 0 0.247159091 0" type="matrix" in="shadowBlurOuter1"></feColorMatrix>
        </filter>
        <linearGradient x1="50%" y1="0%" x2="50%" y2="100%" id="linearGradient-4">
            <stop stop-color="#024AFF" stop-opacity="0.148027753" offset="0%"></stop>
            <stop stop-color="#3B77CF" stop-opacity="0" offset="100%"></stop>
        </linearGradient>
        <rect id="path-5" x="0" y="0" width="224" height="146" rx="13"></rect>
        <filter x="-27.9%" y="-25.7%" width="155.8%" height="202.7%" filterUnits="objectBoundingBox" id="filter-7">
            <feMorphology radius="12.5" operator="erode" in="SourceAlpha" result="shadowSpreadOuter1"></feMorphology>
            <feOffset dx="0" dy="50" in="shadowSpreadOuter1" result="shadowOffsetOuter1"></feOffset>
            <feGaussianBlur stdDeviation="25" in="shadowOffsetOuter1" result="shadowBlurOuter1"></feGaussianBlur>
            <feColorMatrix values="0 0 0 0 0.293478072   0 0 0 0 0.359720343   0 0 0 0 0.604534647  0 0 0 0.247159091 0" type="matrix" in="shadowBlurOuter1"></feColorMatrix>
        </filter>
        <rect id="path-8" x="0" y="0" width="224" height="483" rx="13"></rect>
        <filter x="-27.9%" y="-7.8%" width="155.8%" height="131.1%" filterUnits="objectBoundingBox" id="filter-9">
            <feMorphology radius="12.5" operator="erode" in="SourceAlpha" result="shadowSpreadOuter1"></feMorphology>
            <feOffset dx="0" dy="50" in="shadowSpreadOuter1" result="shadowOffsetOuter1"></feOffset>
            <feGaussianBlur stdDeviation="25" in="shadowOffsetOuter1" result="shadowBlurOuter1"></feGaussianBlur>
            <feColorMatrix values="0 0 0 0 0.293478072   0 0 0 0 0.359720343   0 0 0 0 0.604534647  0 0 0 0.247159091 0" type="matrix" in="shadowBlurOuter1"></feColorMatrix>
        </filter>
    </defs>
    <g id="Designs" stroke="none" stroke-width="1" fill="none" fill-rule="evenodd">
        <g id="Desktop---Home" transform="translate(-775.000000, -213.000000)">
            <g id="Group-24" transform="translate(165.000000, 213.000000)">
                <g id="Group-15" transform="translate(635.000000, 0.000000)">
                    <g id="Path" transform="translate(0.000000, 46.000000)">
                        <mask id="mask-2" fill="white">
                            <use xlink:href="#path-1"></use>
                        </mask>
                        <g id="Mask">
                            <use fill="black" fill-opacity="1" filter="url(#filter-3)" xlink:href="#path-1"></use>
                            <use fill="#FFFFFF" fill-rule="evenodd" xlink:href="#path-1"></use>
                        </g>
                        <polygon id="Path-3" fill="url(#linearGradient-4)" mask="url(#mask-2)" points="-36.826239 240.687558 56.5 209.025811 112 127.171334 168.5 145.180264 243.669335 28.5090258 243.669335 269 -36.826239 268"></polygon>
                        <polyline id="Path-3-Copy" stroke="#5175FF" stroke-width="2" mask="url(#mask-2)" points="-36.826239 240.687558 56.5 209.025811 112 127.171334 168.5 145.180264 243.669335 28.5090258 243.669335 269"></polyline>
                        <rect id="Rectangle" fill="#5175FF" opacity="0.152227493" mask="url(#mask-2)" x="112" y="0" width="1" height="250"></rect>
                        <rect id="Rectangle-Copy-7" fill="#5175FF" opacity="0.152227493" mask="url(#mask-2)" x="56" y="0" width="1" height="250"></rect>
                        <rect id="Rectangle-Copy-8" fill="#5175FF" opacity="0.152227493" mask="url(#mask-2)" x="169" y="0" width="1" height="250"></rect>
                        <circle id="Oval" fill="#5175FF" mask="url(#mask-2)" cx="112" cy="127" r="6"></circle>
                        <circle id="Oval-Copy-5" stroke="#5175FF" opacity="0.25" mask="url(#mask-2)" cx="112" cy="127" r="17.5"></circle>
                        <circle id="Oval-Copy" fill="#5175FF" mask="url(#mask-2)" cx="56" cy="209" r="6"></circle>
                        <circle id="Oval-Copy-2" fill="#5175FF" mask="url(#mask-2)" cx="169" cy="145" r="6"></circle>
                        <circle id="Oval-Copy-3" fill="#5175FF" mask="url(#mask-2)" cx="224" cy="60" r="6"></circle>
                        <circle id="Oval-Copy-4" fill="#5175FF" mask="url(#mask-2)" cx="0" cy="228" r="6"></circle>
                        <g id="Group-4" mask="url(#mask-2)" fill="#747B95">
                            <g transform="translate(-12.000000, 260.000000)">
                                <path d="M115.47876,32.9335938 C116.552979,32.9335938 117.341634,32.7044271 117.844727,32.2460938 C118.347819,31.7877604 118.599365,31.0680339 118.599365,30.0869141 L118.599365,30.0869141 L118.599365,22.9433594 L116.955811,22.9433594 L116.955811,30.1889648 C116.955811,31.0877279 116.427653,31.5371094 115.371338,31.5371094 L115.371338,31.5371094 L115.47876,32.9335938 Z M121.677002,31.1074219 C122.020752,31.1074219 122.336751,31.0465495 122.625,30.9248047 C122.913249,30.8030599 123.157633,30.636556 123.358154,30.425293 L123.358154,30.425293 L123.460205,31 L124.76001,31 L124.76001,27.8955078 C124.76001,27.4156901 124.654378,26.99764 124.443115,26.6413574 C124.231852,26.2850749 123.935547,26.0093587 123.554199,25.814209 C123.172852,25.6190592 122.722575,25.5214844 122.203369,25.5214844 C121.877523,25.5214844 121.533773,25.5644531 121.172119,25.6503906 C120.810465,25.7363281 120.443441,25.8688151 120.071045,26.0478516 L120.071045,26.0478516 L120.602783,27.3530273 C121.039632,27.027181 121.474691,26.8642578 121.907959,26.8642578 C122.638428,26.8642578 123.062744,27.1560872 123.180908,27.7397461 C123.016195,27.7111003 122.852376,27.6878255 122.689453,27.6699219 C122.52653,27.6520182 122.371663,27.6430664 122.224854,27.6430664 C121.759359,27.6430664 121.345785,27.7254232 120.984131,27.8901367 C120.622477,28.0548503 120.338704,28.2786458 120.132812,28.5615234 C119.926921,28.844401 119.823975,29.1648763 119.823975,29.5229492 C119.823975,29.9920247 119.996745,30.3733724 120.342285,30.6669922 C120.687826,30.960612 121.132731,31.1074219 121.677002,31.1074219 Z M122.122803,29.7646484 C121.897217,29.7646484 121.715495,29.7100423 121.577637,29.6008301 C121.439779,29.4916178 121.37085,29.3474935 121.37085,29.168457 C121.37085,28.9715169 121.455892,28.8193359 121.625977,28.7119141 C121.796061,28.6044922 122.033285,28.5507812 122.337646,28.5507812 C122.484456,28.5507812 122.633952,28.5633138 122.786133,28.5883789 C122.938314,28.613444 123.080648,28.6474609 123.213135,28.6904297 L123.213135,28.6904297 L123.213135,28.7978516 C123.213135,29.069987 123.108398,29.2991536 122.898926,29.4853516 C122.689453,29.6715495 122.430745,29.7646484 122.122803,29.7646484 Z M127.595947,31 L127.595947,28.2768555 C127.595947,27.8292643 127.700684,27.4819336 127.910156,27.2348633 C128.119629,26.987793 128.39266,26.8642578 128.729248,26.8642578 C129.380941,26.8642578 129.706787,27.2993164 129.706787,28.1694336 L129.706787,28.1694336 L129.706787,31 L131.259033,31 L131.259033,27.8686523 C131.259033,27.1310221 131.072835,26.5554199 130.700439,26.1418457 C130.328044,25.7282715 129.828532,25.5214844 129.201904,25.5214844 C128.847412,25.5214844 128.522461,25.5877279 128.227051,25.7202148 C127.931641,25.8527018 127.678304,26.0406901 127.467041,26.2841797 L127.467041,26.2841797 L127.402588,25.6289062 L126.049072,25.6289062 L126.049072,31 L127.595947,31 Z" id="Jan" fill-rule="nonzero" opacity="0.5"></path>
                                <path d="M61.012207,31.0107422 C62.5948893,31.0107422 63.8105469,30.6580404 64.6591797,29.9526367 C65.5078125,29.2472331 65.9321289,28.2535807 65.9321289,26.9716797 C65.9321289,25.6933594 65.5078125,24.7041829 64.6591797,24.0041504 C63.8105469,23.3041178 62.5948893,22.9541016 61.012207,22.9541016 L61.012207,22.9541016 L58.4770508,22.9541016 L58.4770508,31.0107422 L61.012207,31.0107422 Z M61.0498047,29.5605469 L60.1206055,29.5605469 L60.1206055,24.4042969 L61.0498047,24.4042969 C62.0882161,24.4042969 62.8840332,24.6280924 63.4372559,25.0756836 C63.9904785,25.5232747 64.2670898,26.1552734 64.2670898,26.9716797 C64.2670898,27.7916667 63.9904785,28.4281413 63.4372559,28.8811035 C62.8840332,29.3340658 62.0882161,29.5605469 61.0498047,29.5605469 L61.0498047,29.5605469 Z M69.5522461,31.1074219 C69.9246419,31.1074219 70.3140462,31.0465495 70.720459,30.9248047 C71.1268717,30.8030599 71.5377604,30.5792643 71.953125,30.253418 L71.953125,30.253418 L71.0185547,29.1362305 C70.8180339,29.3260091 70.5951335,29.4808757 70.3498535,29.6008301 C70.1045736,29.7207845 69.7957357,29.7807617 69.4233398,29.7807617 C69.0760091,29.7807617 68.7725423,29.6876628 68.5129395,29.5014648 C68.2533366,29.3152669 68.0751953,29.0735677 67.9785156,28.7763672 L67.9785156,28.7763672 L72.1679688,28.7763672 L72.1679688,28.309082 C72.1679688,27.7683919 72.046224,27.2885742 71.8027344,26.8696289 C71.5592448,26.4506836 71.2271322,26.1212565 70.8063965,25.8813477 C70.3856608,25.6414388 69.9049479,25.5214844 69.3642578,25.5214844 C68.819987,25.5214844 68.333903,25.642334 67.9060059,25.8840332 C67.4781087,26.1257324 67.140625,26.4551595 66.8935547,26.8723145 C66.6464844,27.2894694 66.5229492,27.7648112 66.5229492,28.2983398 C66.5229492,28.8390299 66.6518555,29.3215332 66.909668,29.7458496 C67.1674805,30.170166 67.523763,30.5031738 67.9785156,30.744873 C68.4332682,30.9865723 68.9578451,31.1074219 69.5522461,31.1074219 Z M70.578125,27.9169922 L67.9462891,27.9169922 C68.0214844,27.6090495 68.1799316,27.3566081 68.4216309,27.159668 C68.6633301,26.9627279 68.9488932,26.8642578 69.2783203,26.8642578 C69.6041667,26.8642578 69.8834635,26.9609375 70.1162109,27.1542969 C70.3489583,27.3476562 70.5029297,27.601888 70.578125,27.9169922 L70.578125,27.9169922 Z M75.7773438,31.1074219 C76.2034505,31.1074219 76.5982259,31.0375977 76.9616699,30.8979492 C77.3251139,30.7583008 77.6375326,30.563151 77.8989258,30.3125 L77.8989258,30.3125 L76.8085938,29.2866211 C76.5507812,29.605306 76.2070312,29.7646484 75.7773438,29.7646484 C75.3834635,29.7646484 75.0576172,29.6267904 74.7998047,29.3510742 C74.5419922,29.0753581 74.4130859,28.7298177 74.4130859,28.3144531 C74.4130859,27.8990885 74.5419922,27.5535482 74.7998047,27.277832 C75.0576172,27.0021159 75.3834635,26.8642578 75.7773438,26.8642578 C76.2070312,26.8642578 76.5507812,27.0236003 76.8085938,27.3422852 L76.8085938,27.3422852 L77.8989258,26.3164062 C77.6375326,26.0657552 77.3251139,25.8706055 76.9616699,25.730957 C76.5982259,25.5913086 76.2034505,25.5214844 75.7773438,25.5214844 C75.2080078,25.5214844 74.7004395,25.642334 74.2546387,25.8840332 C73.8088379,26.1257324 73.4570312,26.4569499 73.1992188,26.8776855 C72.9414062,27.2984212 72.8125,27.7773438 72.8125,28.3144531 C72.8125,28.8515625 72.9414062,29.330485 73.1992188,29.7512207 C73.4570312,30.1719564 73.8088379,30.5031738 74.2546387,30.744873 C74.7004395,30.9865723 75.2080078,31.1074219 75.7773438,31.1074219 Z" id="Dec" fill-rule="nonzero" opacity="0.5"></path>
                                <path d="M3.84399414,31 L3.84399414,25.5751953 L7.98510742,31 L9.64477539,31 L9.64477539,22.9433594 L8.0012207,22.9433594 L8.0012207,28.3574219 L3.86547852,22.9433594 L2.23266602,22.9433594 L2.23266602,31 L3.84399414,31 Z M13.5334473,31.1074219 C14.0848796,31.1074219 14.5754395,30.9865723 15.005127,30.744873 C15.4348145,30.5031738 15.7740885,30.1719564 16.0229492,29.7512207 C16.2718099,29.330485 16.3962402,28.8515625 16.3962402,28.3144531 C16.3962402,27.7773438 16.2718099,27.2984212 16.0229492,26.8776855 C15.7740885,26.4569499 15.4348145,26.1257324 15.005127,25.8840332 C14.5754395,25.642334 14.0848796,25.5214844 13.5334473,25.5214844 C12.982015,25.5214844 12.4905599,25.642334 12.059082,25.8840332 C11.6276042,26.1257324 11.2874349,26.4569499 11.0385742,26.8776855 C10.7897135,27.2984212 10.6652832,27.7773438 10.6652832,28.3144531 C10.6652832,28.8515625 10.7897135,29.330485 11.0385742,29.7512207 C11.2874349,30.1719564 11.6276042,30.5031738 12.059082,30.744873 C12.4905599,30.9865723 12.982015,31.1074219 13.5334473,31.1074219 Z M13.5334473,29.7646484 C13.1395671,29.7646484 12.8137207,29.6267904 12.5559082,29.3510742 C12.2980957,29.0753581 12.1691895,28.7298177 12.1691895,28.3144531 C12.1691895,27.8990885 12.2980957,27.5535482 12.5559082,27.277832 C12.8137207,27.0021159 13.1395671,26.8642578 13.5334473,26.8642578 C13.9273275,26.8642578 14.2531738,27.0021159 14.5109863,27.277832 C14.7687988,27.5535482 14.8977051,27.8990885 14.8977051,28.3144531 C14.8977051,28.7298177 14.7687988,29.0753581 14.5109863,29.3510742 C14.2531738,29.6267904 13.9273275,29.7646484 13.5334473,29.7646484 Z M20.3977051,31 L22.5192871,25.6289062 L20.8918457,25.6289062 L19.994873,28.2446289 C19.9447428,28.3878581 19.886556,28.5883789 19.8203125,28.8461914 C19.754069,29.1040039 19.6994629,29.3385417 19.6564941,29.5498047 L19.6564941,29.5498047 L19.6350098,29.5498047 C19.5992025,29.3385417 19.5499674,29.1022135 19.4873047,28.8408203 C19.4246419,28.5794271 19.3682454,28.3806966 19.3181152,28.2446289 L19.3181152,28.2446289 L18.3459473,25.6289062 L16.6647949,25.6289062 L18.8937988,31 L20.3977051,31 Z" id="Nov" fill-rule="nonzero" opacity="0.5"></path>
                                <path d="M172.649658,31 L172.649658,27.5839844 L175.75415,27.5839844 L175.75415,26.1337891 L172.649658,26.1337891 L172.649658,24.3935547 L175.968994,24.3935547 L175.968994,22.9433594 L171.006104,22.9433594 L171.006104,31 L172.649658,31 Z M179.857666,31.1074219 C180.230062,31.1074219 180.619466,31.0465495 181.025879,30.9248047 C181.432292,30.8030599 181.84318,30.5792643 182.258545,30.253418 L182.258545,30.253418 L181.323975,29.1362305 C181.123454,29.3260091 180.900553,29.4808757 180.655273,29.6008301 C180.409993,29.7207845 180.101156,29.7807617 179.72876,29.7807617 C179.381429,29.7807617 179.077962,29.6876628 178.818359,29.5014648 C178.558757,29.3152669 178.380615,29.0735677 178.283936,28.7763672 L178.283936,28.7763672 L182.473389,28.7763672 L182.473389,28.309082 C182.473389,27.7683919 182.351644,27.2885742 182.108154,26.8696289 C181.864665,26.4506836 181.532552,26.1212565 181.111816,25.8813477 C180.691081,25.6414388 180.210368,25.5214844 179.669678,25.5214844 C179.125407,25.5214844 178.639323,25.642334 178.211426,25.8840332 C177.783529,26.1257324 177.446045,26.4551595 177.198975,26.8723145 C176.951904,27.2894694 176.828369,27.7648112 176.828369,28.2983398 C176.828369,28.8390299 176.957275,29.3215332 177.215088,29.7458496 C177.4729,30.170166 177.829183,30.5031738 178.283936,30.744873 C178.738688,30.9865723 179.263265,31.1074219 179.857666,31.1074219 Z M180.883545,27.9169922 L178.251709,27.9169922 C178.326904,27.6090495 178.485352,27.3566081 178.727051,27.159668 C178.96875,26.9627279 179.254313,26.8642578 179.58374,26.8642578 C179.909587,26.8642578 180.188883,26.9609375 180.421631,27.1542969 C180.654378,27.3476562 180.80835,27.601888 180.883545,27.9169922 L180.883545,27.9169922 Z M186.75415,31.1074219 C187.259033,31.1074219 187.708415,30.9865723 188.102295,30.744873 C188.496175,30.5031738 188.805908,30.1719564 189.031494,29.7512207 C189.25708,29.330485 189.369873,28.8515625 189.369873,28.3144531 C189.369873,27.7773438 189.25708,27.2984212 189.031494,26.8776855 C188.805908,26.4569499 188.496175,26.1257324 188.102295,25.8840332 C187.708415,25.642334 187.259033,25.5214844 186.75415,25.5214844 C186.417562,25.5214844 186.104248,25.5778809 185.814209,25.6906738 C185.52417,25.8034668 185.266357,25.9601237 185.040771,26.1606445 L185.040771,26.1606445 L185.040771,22.9433594 L183.493896,22.9433594 L183.493896,31 L184.954834,31 L184.992432,30.4199219 C185.218018,30.6383464 185.481201,30.8075358 185.781982,30.9274902 C186.082764,31.0474447 186.40682,31.1074219 186.75415,31.1074219 Z M186.405029,29.7646484 C186.011149,29.7646484 185.685303,29.6267904 185.42749,29.3510742 C185.169678,29.0753581 185.040771,28.7298177 185.040771,28.3144531 C185.040771,27.8990885 185.169678,27.5535482 185.42749,27.277832 C185.685303,27.0021159 186.011149,26.8642578 186.405029,26.8642578 C186.79891,26.8642578 187.124756,27.0021159 187.382568,27.277832 C187.640381,27.5535482 187.769287,27.8990885 187.769287,28.3144531 C187.769287,28.7298177 187.640381,29.0753581 187.382568,29.3510742 C187.124756,29.6267904 186.79891,29.7646484 186.405029,29.7646484 Z" id="Feb" fill-rule="nonzero" opacity="0.5"></path>
                                <path d="M228.066895,31 C228.066895,30.1943359 228.062419,29.4710286 228.053467,28.8300781 C228.044515,28.1891276 228.028402,27.5777181 228.005127,26.9958496 C227.981852,26.4139811 227.950521,25.8115234 227.911133,25.1884766 C228.011393,25.4534505 228.113444,25.7175293 228.217285,25.9807129 C228.321126,26.2438965 228.428548,26.511556 228.539551,26.7836914 L228.539551,26.7836914 L229.893066,29.684082 L231.697754,29.684082 L233.056641,26.7729492 C233.167643,26.5366211 233.27417,26.2967122 233.376221,26.0532227 C233.478271,25.8097331 233.575846,25.5644531 233.668945,25.3173828 C233.611654,26.2555339 233.574056,27.1918945 233.556152,28.1264648 C233.538249,29.0610352 233.529297,30.0188802 233.529297,31 L233.529297,31 L235.172852,31 L235.172852,22.9433594 L233.078125,22.9433594 L231.311035,26.7407227 C231.221517,26.9305013 231.134684,27.1328125 231.050537,27.3476562 C230.96639,27.5625 230.886719,27.7791341 230.811523,27.9975586 C230.736328,27.7862956 230.658447,27.5759277 230.577881,27.3664551 C230.497314,27.1569824 230.415853,26.9484049 230.333496,26.7407227 L230.333496,26.7407227 L228.561035,22.9433594 L226.42334,22.9433594 L226.42334,31 L228.066895,31 Z M238.250488,31.1074219 C238.594238,31.1074219 238.910238,31.0465495 239.198486,30.9248047 C239.486735,30.8030599 239.73112,30.636556 239.931641,30.425293 L239.931641,30.425293 L240.033691,31 L241.333496,31 L241.333496,27.8955078 C241.333496,27.4156901 241.227865,26.99764 241.016602,26.6413574 C240.805339,26.2850749 240.509033,26.0093587 240.127686,25.814209 C239.746338,25.6190592 239.296061,25.5214844 238.776855,25.5214844 C238.451009,25.5214844 238.107259,25.5644531 237.745605,25.6503906 C237.383952,25.7363281 237.016927,25.8688151 236.644531,26.0478516 L236.644531,26.0478516 L237.17627,27.3530273 C237.613118,27.027181 238.048177,26.8642578 238.481445,26.8642578 C239.211914,26.8642578 239.63623,27.1560872 239.754395,27.7397461 C239.589681,27.7111003 239.425863,27.6878255 239.262939,27.6699219 C239.100016,27.6520182 238.94515,27.6430664 238.79834,27.6430664 C238.332845,27.6430664 237.919271,27.7254232 237.557617,27.8901367 C237.195964,28.0548503 236.912191,28.2786458 236.706299,28.5615234 C236.500407,28.844401 236.397461,29.1648763 236.397461,29.5229492 C236.397461,29.9920247 236.570231,30.3733724 236.915771,30.6669922 C237.261312,30.960612 237.706217,31.1074219 238.250488,31.1074219 Z M238.696289,29.7646484 C238.470703,29.7646484 238.288981,29.7100423 238.151123,29.6008301 C238.013265,29.4916178 237.944336,29.3474935 237.944336,29.168457 C237.944336,28.9715169 238.029378,28.8193359 238.199463,28.7119141 C238.369548,28.6044922 238.606771,28.5507812 238.911133,28.5507812 C239.057943,28.5507812 239.207438,28.5633138 239.359619,28.5883789 C239.5118,28.613444 239.654134,28.6474609 239.786621,28.6904297 L239.786621,28.6904297 L239.786621,28.7978516 C239.786621,29.069987 239.681885,29.2991536 239.472412,29.4853516 C239.262939,29.6715495 239.004232,29.7646484 238.696289,29.7646484 Z M244.169434,31 L244.169434,28.6313477 C244.169434,28.0655924 244.296549,27.6296387 244.550781,27.3234863 C244.805013,27.017334 245.139811,26.8642578 245.555176,26.8642578 C245.755697,26.8642578 245.959798,26.8982747 246.16748,26.9663086 L246.16748,26.9663086 L246.382324,25.6289062 C246.135254,25.5572917 245.895345,25.5214844 245.662598,25.5214844 C244.978678,25.5214844 244.441569,25.8133138 244.05127,26.3969727 L244.05127,26.3969727 L243.976074,25.6289062 L242.622559,25.6289062 L242.622559,31 L244.169434,31 Z" id="Mar" fill-rule="nonzero" opacity="0.5"></path>
                                <rect id="Rectangle" fill-rule="evenodd" opacity="0.25" x="12" y="8" width="224" height="1"></rect>
                                <rect id="Rectangle-Copy-4" fill-rule="evenodd" opacity="0.25" x="124" y="0" width="1" height="8"></rect>
                                <rect id="Rectangle-Copy-5" fill-rule="evenodd" opacity="0.25" x="68" y="0" width="1" height="8"></rect>
                                <rect id="Rectangle-Copy-6" fill-rule="evenodd" opacity="0.25" x="180" y="0" width="1" height="8"></rect>
                            </g>
                        </g>
                    </g>
                    <g id="Group-17" transform="translate(0.000000, 385.000000)">
                        <mask id="mask-6" fill="white">
                            <use xlink:href="#path-5"></use>
                        </mask>
                        <g id="Mask">
                            <use fill="black" fill-opacity="1" filter="url(#filter-7)" xlink:href="#path-5"></use>
                            <use fill="#333950" fill-rule="evenodd" xlink:href="#path-5"></use>
                        </g>
                        <g mask="url(#mask-6)">
                            <g transform="translate(-67.000000, 41.000000)">
                                <g id="Aa" transform="translate(130.000000, 0.000000)">
                                    <path d="M17.64,54 L17.64,51.552 L10.872,50.616 L14.832,36.936 L31.392,36.936 L35.784,50.832 L29.376,51.552 L29.376,54 L53.928,54 L53.928,51.552 L48.168,50.904 L30.888,1.0658141e-14 L23.4,1.0658141e-14 L7.128,50.688 L1.152,51.552 L1.152,54 L17.64,54 Z M30.6,34.416 L15.552,34.416 L22.752,9.792 L30.6,34.416 Z M88.776,55.224 C93.384,55.224 96.12,53.568 97.92,49.608 L96.696,48.6 C95.328,50.76 94.536,51.336 93.456,51.336 C92.088,51.336 91.224,50.4 91.224,47.664 L91.224,28.296 C91.224,17.856 87.12,13.464 76.896,13.464 C65.736,13.464 59.472,17.784 58.896,24.552 C59.472,26.928 61.272,28.224 63.864,28.224 C66.6,28.224 69.048,26.28 69.264,21.384 L69.768,16.272 C70.848,16.056 71.784,15.984 72.792,15.984 C78.264,15.984 79.992,18.216 79.992,25.704 L79.992,30.096 C77.472,30.744 74.952,31.392 72.936,31.968 C61.344,35.352 57.6,38.88 57.6,45.432 C57.6,51.48 61.92,55.224 68.112,55.224 C73.872,55.224 76.608,52.992 80.28,48.96 C81.36,52.848 84.024,55.224 88.776,55.224 Z M73.728,50.328 C70.344,50.328 68.328,48.312 68.328,43.992 C68.328,38.736 70.992,35.352 76.032,33.264 C76.896,32.904 78.336,32.472 79.992,32.04 L79.992,47.016 C77.328,49.392 75.672,50.328 73.728,50.328 Z" fill="#FEFEFE" fill-rule="nonzero"></path>
                                    <polygon id="Decoration" fill="#FEFEFE" fill-rule="nonzero" points="1.42108547e-14 59 1.42108547e-14 63 95.132 63 95.132 59"></polygon>
                                </g>
                                <g id="Aa-Copy" opacity="0.15" transform="translate(0.000000, 30.000000)">
                                    <polygon id="Decoration" fill="#FEFEFE" fill-rule="nonzero" points="0 0 0 4 95.132 4 95.132 0"></polygon>
                                </g>
                                <g id="Aa-Copy-2" opacity="0.15" transform="translate(260.000000, 30.000000)">
                                    <polygon id="Decoration" fill="#FEFEFE" fill-rule="nonzero" points="0 0 0 4 95.132 4 95.132 0"></polygon>
                                </g>
                            </g>
                        </g>
                    </g>
                    <g id="Group-8" transform="translate(251.000000, 0.000000)">
                        <g id="Rectangle-Copy">
                            <use fill="black" fill-opacity="1" filter="url(#filter-9)" xlink:href="#path-8"></use>
                            <use fill="#5175FF" fill-rule="evenodd" xlink:href="#path-8"></use>
                        </g>
                        <rect id="Rectangle" fill="#FFFFFF" opacity="0.15" x="0" y="182" width="224" height="1"></rect>
                        <g id="Group-3" transform="translate(56.000000, 35.000000)">
                            <circle id="Oval-Copy-6" stroke="#FFFFFF" opacity="0.145996094" cx="56" cy="56" r="55.5"></circle>
                            <path d="M4.71589311,33.474537 L12.7254535,36.997241 C10.1153944,42.9317236 8.75,49.3659158 8.75,56 C8.75,82.0954544 29.9045456,103.25 56,103.25 C82.0954544,103.25 103.25,82.0954544 103.25,56 C103.25,29.9045456 82.0954544,8.75 56,8.75 L56,0 C86.927946,0 112,25.072054 112,56 C112,86.927946 86.927946,112 56,112 C25.072054,112 0,86.927946 0,56 C0,48.1472446 1.61983899,40.5140251 4.71589311,33.474537 Z" id="Oval" fill="#5CFCD3" fill-rule="nonzero" transform="translate(56.000000, 56.000000) rotate(-90.000000) translate(-56.000000, -56.000000) "></path>
                            <path d="M33.28125,68.375 C34.9375,68.375 36.3854167,68.0885417 37.625,67.515625 C38.8645833,66.9427083 39.8307292,66.140625 40.5234375,65.109375 C41.2161458,64.078125 41.5625,62.8802083 41.5625,61.515625 C41.5625,60.0989583 41.1953125,58.8619792 40.4609375,57.8046875 C39.7265625,56.7473958 38.7083333,55.9479167 37.40625,55.40625 C38.4583333,54.8958333 39.2838542,54.1875 39.8828125,53.28125 C40.4817708,52.375 40.78125,51.328125 40.78125,50.140625 C40.78125,48.9114583 40.46875,47.8359375 39.84375,46.9140625 C39.21875,45.9921875 38.34375,45.2760417 37.21875,44.765625 C36.09375,44.2552083 34.78125,44 33.28125,44 C31.7708333,44 30.4505208,44.2552083 29.3203125,44.765625 C28.1901042,45.2760417 27.3125,45.9921875 26.6875,46.9140625 C26.0625,47.8359375 25.75,48.9114583 25.75,50.140625 C25.75,51.3385417 26.0494792,52.3880208 26.6484375,53.2890625 C27.2473958,54.1901042 28.078125,54.8958333 29.140625,55.40625 C27.8489583,55.9479167 26.8359375,56.7473958 26.1015625,57.8046875 C25.3671875,58.8619792 25,60.0989583 25,61.515625 C25,62.8802083 25.3463542,64.078125 26.0390625,65.109375 C26.7317708,66.140625 27.6979167,66.9427083 28.9375,67.515625 C30.1770833,68.0885417 31.625,68.375 33.28125,68.375 Z M33.28125,53.375 C32.3958333,53.375 31.6796875,53.1171875 31.1328125,52.6015625 C30.5859375,52.0859375 30.3125,51.40625 30.3125,50.5625 C30.3125,49.7083333 30.5859375,49.0260417 31.1328125,48.515625 C31.6796875,48.0052083 32.3958333,47.75 33.28125,47.75 C34.15625,47.75 34.8671875,48.0052083 35.4140625,48.515625 C35.9609375,49.0260417 36.234375,49.7083333 36.234375,50.5625 C36.234375,51.40625 35.9609375,52.0859375 35.4140625,52.6015625 C34.8671875,53.1171875 34.15625,53.375 33.28125,53.375 Z M33.28125,64.15625 C32.15625,64.15625 31.2526042,63.8541667 30.5703125,63.25 C29.8880208,62.6458333 29.546875,61.8541667 29.546875,60.875 C29.546875,59.8854167 29.8880208,59.0911458 30.5703125,58.4921875 C31.2526042,57.8932292 32.15625,57.59375 33.28125,57.59375 C34.40625,57.59375 35.3098958,57.8932292 35.9921875,58.4921875 C36.6744792,59.0911458 37.015625,59.8854167 37.015625,60.875 C37.015625,61.8541667 36.6744792,62.6458333 35.9921875,63.25 C35.3098958,63.8541667 34.40625,64.15625 33.28125,64.15625 Z M52.359375,67.90625 L60.34375,47.78125 L60.34375,44.46875 L45.15625,44.46875 L45.15625,48.6875 L54.796875,48.6875 L47.203125,67.90625 L52.359375,67.90625 Z M69.734375,55.5 C70.8385417,55.5 71.7708333,55.3255208 72.53125,54.9765625 C73.2916667,54.6276042 73.90625,54.1744792 74.375,53.6171875 C74.84375,53.0598958 75.1822917,52.453125 75.390625,51.796875 C75.5989583,51.140625 75.703125,50.5104167 75.703125,49.90625 C75.703125,49.2916667 75.5989583,48.6588542 75.390625,48.0078125 C75.1822917,47.3567708 74.84375,46.7526042 74.375,46.1953125 C73.90625,45.6380208 73.2916667,45.1848958 72.53125,44.8359375 C71.7708333,44.4869792 70.8385417,44.3125 69.734375,44.3125 C68.265625,44.3125 67.0963542,44.609375 66.2265625,45.203125 C65.3567708,45.796875 64.7317708,46.5260417 64.3515625,47.390625 C63.9713542,48.2552083 63.78125,49.09375 63.78125,49.90625 C63.78125,50.71875 63.9713542,51.5572917 64.3515625,52.421875 C64.7317708,53.2864583 65.3567708,54.015625 66.2265625,54.609375 C67.0963542,55.203125 68.265625,55.5 69.734375,55.5 Z M71.71875,67.921875 L86.671875,44.4375 L82.40625,44.4375 L67.46875,67.921875 L71.71875,67.921875 Z M69.734375,52.21875 C69.1302083,52.21875 68.65625,51.9947917 68.3125,51.546875 C67.96875,51.0989583 67.796875,50.5520833 67.796875,49.90625 C67.796875,49.2604167 67.96875,48.7135417 68.3125,48.265625 C68.65625,47.8177083 69.1302083,47.59375 69.734375,47.59375 C70.3489583,47.59375 70.828125,47.8177083 71.171875,48.265625 C71.515625,48.7135417 71.6875,49.2604167 71.6875,49.90625 C71.6875,50.5520833 71.515625,51.0989583 71.171875,51.546875 C70.828125,51.9947917 70.3489583,52.21875 69.734375,52.21875 Z M84.375,68.0625 C85.84375,68.0625 87.0130208,67.765625 87.8828125,67.171875 C88.7526042,66.578125 89.3802083,65.8489583 89.765625,64.984375 C90.1510417,64.1197917 90.34375,63.28125 90.34375,62.46875 C90.34375,61.8645833 90.2395833,61.2369792 90.03125,60.5859375 C89.8229167,59.9348958 89.484375,59.328125 89.015625,58.765625 C88.546875,58.203125 87.9322917,57.7473958 87.171875,57.3984375 C86.4114583,57.0494792 85.4791667,56.875 84.375,56.875 C83.2708333,56.875 82.3385417,57.0494792 81.578125,57.3984375 C80.8177083,57.7473958 80.2057292,58.203125 79.7421875,58.765625 C79.2786458,59.328125 78.9427083,59.9348958 78.734375,60.5859375 C78.5260417,61.2369792 78.421875,61.8645833 78.421875,62.46875 C78.421875,63.28125 78.6119792,64.1197917 78.9921875,64.984375 C79.3723958,65.8489583 79.9973958,66.578125 80.8671875,67.171875 C81.7369792,67.765625 82.90625,68.0625 84.375,68.0625 Z M84.375,64.78125 C83.7604167,64.78125 83.2838542,64.5598958 82.9453125,64.1171875 C82.6067708,63.6744792 82.4375,63.1302083 82.4375,62.484375 C82.4375,61.828125 82.6067708,61.2760417 82.9453125,60.828125 C83.2838542,60.3802083 83.7604167,60.15625 84.375,60.15625 C84.9895833,60.15625 85.46875,60.3802083 85.8125,60.828125 C86.15625,61.2760417 86.328125,61.828125 86.328125,62.484375 C86.328125,63.1302083 86.15625,63.6744792 85.8125,64.1171875 C85.46875,64.5598958 84.9895833,64.78125 84.375,64.78125 Z" id="87%" fill="#5CFCD3" fill-rule="nonzero"></path>
                        </g>
                        <path d="M85.453125,241.09375 C88.1223958,239.557292 90.4498698,237.701823 92.4355469,235.527344 C94.421224,233.352865 95.9641927,231.01888 97.0644531,228.525391 C98.1647135,226.031901 98.7148438,223.541667 98.7148438,221.054688 C98.7148438,218.854167 98.2851562,216.933594 97.4257812,215.292969 C96.5664062,213.652344 95.3522135,212.379557 93.7832031,211.474609 C92.2141927,210.569661 90.375,210.117188 88.265625,210.117188 C86.234375,210.117188 84.4277344,210.533854 82.8457031,211.367188 C81.2636719,212.200521 80.0201823,213.346354 79.1152344,214.804688 C78.2102865,216.263021 77.7578125,217.942708 77.7578125,219.84375 C77.7578125,221.692708 78.1907552,223.333333 79.0566406,224.765625 C79.922526,226.197917 81.1171875,227.324219 82.640625,228.144531 C84.1640625,228.964844 85.9023438,229.375 87.8554688,229.375 C88.3632812,229.375 88.828776,229.348958 89.2519531,229.296875 C89.6751302,229.244792 90.0690104,229.173177 90.4335938,229.082031 C89.5221354,230.579427 88.3307292,232.005208 86.859375,233.359375 C85.3880208,234.713542 83.7213542,235.93099 81.859375,237.011719 L81.859375,237.011719 L85.453125,241.09375 Z M88.1679688,224.765625 C86.9049479,224.765625 85.8632812,224.329427 85.0429688,223.457031 C84.2226562,222.584635 83.8125,221.471354 83.8125,220.117188 C83.8125,218.75 84.2291667,217.620443 85.0625,216.728516 C85.8958333,215.836589 86.9440104,215.390625 88.2070312,215.390625 C89.4830729,215.390625 90.5345052,215.833333 91.3613281,216.71875 C92.188151,217.604167 92.6015625,218.723958 92.6015625,220.078125 C92.6015625,221.432292 92.1816406,222.552083 91.3417969,223.4375 C90.5019531,224.322917 89.4440104,224.765625 88.1679688,224.765625 Z M112.972656,240.585938 C115.042969,240.585938 116.852865,240.227865 118.402344,239.511719 C119.951823,238.795573 121.159505,237.792969 122.025391,236.503906 C122.891276,235.214844 123.324219,233.717448 123.324219,232.011719 C123.324219,230.240885 122.865234,228.694661 121.947266,227.373047 C121.029297,226.051432 119.75651,225.052083 118.128906,224.375 C119.44401,223.736979 120.475911,222.851562 121.224609,221.71875 C121.973307,220.585938 122.347656,219.277344 122.347656,217.792969 C122.347656,216.25651 121.957031,214.912109 121.175781,213.759766 C120.394531,212.607422 119.300781,211.71224 117.894531,211.074219 C116.488281,210.436198 114.847656,210.117188 112.972656,210.117188 C111.084635,210.117188 109.434245,210.436198 108.021484,211.074219 C106.608724,211.71224 105.511719,212.607422 104.730469,213.759766 C103.949219,214.912109 103.558594,216.25651 103.558594,217.792969 C103.558594,219.290365 103.932943,220.602214 104.681641,221.728516 C105.430339,222.854818 106.46875,223.736979 107.796875,224.375 C106.182292,225.052083 104.916016,226.051432 103.998047,227.373047 C103.080078,228.694661 102.621094,230.240885 102.621094,232.011719 C102.621094,233.717448 103.054036,235.214844 103.919922,236.503906 C104.785807,237.792969 105.99349,238.795573 107.542969,239.511719 C109.092448,240.227865 110.902344,240.585938 112.972656,240.585938 Z M112.972656,221.835938 C111.865885,221.835938 110.970703,221.513672 110.287109,220.869141 C109.603516,220.224609 109.261719,219.375 109.261719,218.320312 C109.261719,217.252604 109.603516,216.39974 110.287109,215.761719 C110.970703,215.123698 111.865885,214.804688 112.972656,214.804688 C114.066406,214.804688 114.955078,215.123698 115.638672,215.761719 C116.322266,216.39974 116.664062,217.252604 116.664062,218.320312 C116.664062,219.375 116.322266,220.224609 115.638672,220.869141 C114.955078,221.513672 114.066406,221.835938 112.972656,221.835938 Z M112.972656,235.3125 C111.566406,235.3125 110.436849,234.934896 109.583984,234.179688 C108.73112,233.424479 108.304688,232.434896 108.304688,231.210938 C108.304688,229.973958 108.73112,228.98112 109.583984,228.232422 C110.436849,227.483724 111.566406,227.109375 112.972656,227.109375 C114.378906,227.109375 115.508464,227.483724 116.361328,228.232422 C117.214193,228.98112 117.640625,229.973958 117.640625,231.210938 C117.640625,232.434896 117.214193,233.424479 116.361328,234.179688 C115.508464,234.934896 114.378906,235.3125 112.972656,235.3125 Z M133.441406,240 L133.441406,235.390625 L135.140625,233.398438 L140.726562,240 L147.621094,240 L138.714844,229.238281 L146.214844,220.46875 L140.0625,220.46875 L136.273438,224.84375 C135.713542,225.494792 135.199219,226.110026 134.730469,226.689453 C134.261719,227.26888 133.832031,227.864583 133.441406,228.476562 L133.441406,228.476562 L133.441406,210.703125 L127.816406,210.703125 L127.816406,240 L133.441406,240 Z" id="98k" fill="#FFFFFF" fill-rule="nonzero"></path>
                        <g id="Group-2" transform="translate(32.000000, 282.000000)">
                            <rect id="Rectangle" fill="#FFFFFF" x="0" y="0" width="14" height="14" rx="7"></rect>
                            <rect id="Rectangle-Copy-3" fill="#7DA7FF" x="29" y="0" width="131" height="14" rx="7"></rect>
                        </g>
                        <g id="Group-2-Copy" transform="translate(32.000000, 316.000000)">
                            <rect id="Rectangle" fill="#FFFFFF" x="0" y="0" width="14" height="14" rx="7"></rect>
                            <rect id="Rectangle-Copy-3" fill="#7DA7FF" x="29" y="0" width="83" height="14" rx="7"></rect>
                        </g>
                        <g id="Group-2-Copy-2" transform="translate(32.000000, 350.000000)">
                            <rect id="Rectangle" fill="#FFFFFF" x="0" y="0" width="14" height="14" rx="7"></rect>
                            <rect id="Rectangle-Copy-3" fill="#7DA7FF" x="29" y="0" width="131" height="14" rx="7"></rect>
                        </g>
                        <g id="Group-2-Copy-3" transform="translate(32.000000, 384.000000)">
                            <rect id="Rectangle" fill="#FFFFFF" x="0" y="0" width="14" height="14" rx="7"></rect>
                            <rect id="Rectangle-Copy-3" fill="#7DA7FF" x="29" y="0" width="79" height="14" rx="7"></rect>
                        </g>
                        <g id="Group-2-Copy-4" transform="translate(32.000000, 418.000000)">
                            <rect id="Rectangle" fill="#FFFFFF" x="0" y="0" width="14" height="14" rx="7"></rect>
                            <rect id="Rectangle-Copy-3" fill="#7DA7FF" x="29" y="0" width="131" height="14" rx="7"></rect>
                        </g>
                    </g>
                </g>
            </g>
        </g>
    </g>
</svg>